<?xml version="1.0" standalone="no"?>
<!DOCTYPE svg PUBLIC "-//W3C//DTD SVG 20010904//EN"
 "http://www.w3.org/TR/2001/REC-SVG-20010904/DTD/svg10.dtd">
<svg version="1.0" xmlns="http://www.w3.org/2000/svg"
 width="85.000000pt" height="85.000000pt" viewBox="0 0 85.000000 85.000000"
 preserveAspectRatio="xMidYMid meet">
<metadata>
Created by potrace 1.11, written by Peter Selinger 2001-2013
</metadata>
<g transform="translate(0.000000,85.000000) scale(0.100000,-0.100000)"
fill="#000000" stroke="none">
<path d="M239 683 c-92 -92 -170 -179 -174 -191 -16 -54 2 -84 115 -197 60
-60 111 -107 112 -104 2 2 21 23 43 47 l39 42 -44 45 c-24 25 -53 45 -63 45
-10 0 -32 14 -48 31 -39 42 -92 109 -86 109 3 0 29 -20 58 -45 28 -24 56 -42
61 -39 9 6 -2 22 -56 82 -42 46 -25 40 45 -15 38 -30 62 -58 65 -74 4 -15 26
-46 50 -69 l43 -43 107 102 c58 56 114 106 124 111 17 9 18 7 10 -20 -13 -46
-90 -155 -171 -243 -57 -62 -74 -75 -85 -66 -18 15 -29 5 -95 -78 -33 -40 -58
-63 -71 -63 -17 0 -18 -3 -8 -15 7 -8 16 -15 20 -15 5 0 30 27 56 60 l49 59
37 -36 38 -37 35 34 35 33 59 -56 c33 -31 64 -57 70 -57 6 0 15 9 21 20 10 19
9 20 -15 14 -23 -6 -36 2 -96 62 -38 38 -69 73 -69 78 0 5 8 18 17 28 16 18
17 18 43 -7 l26 -25 107 109 c106 108 107 110 107 157 l0 48 -173 173 -172
174 -166 -168z m196 54 c0 -31 9 -57 33 -94 18 -28 37 -65 42 -82 11 -38 -4
-98 -33 -129 -19 -21 -67 -52 -80 -52 -3 0 -2 20 0 44 4 34 0 56 -18 93 -25
50 -30 116 -10 136 8 8 11 6 11 -10 0 -11 12 -38 27 -59 14 -21 32 -57 39 -79
l13 -40 0 37 c1 21 -12 63 -29 100 -34 71 -37 105 -15 148 9 17 17 30 18 30 1
0 2 -19 2 -43z m60 -76 c9 -16 -1 -13 -19 5 -16 16 -22 75 -8 88 4 4 10 -13
14 -38 3 -25 9 -50 13 -55z m-161 24 c-21 -51 -17 -86 17 -150 30 -56 30 -60
16 -89 -11 -21 -16 -25 -16 -13 -1 10 -15 35 -31 56 -50 62 -50 141 1 205 27
35 31 33 13 -9z"/>
</g>
</svg>
